<?xml version="1.0" standalone="no"?>
<!DOCTYPE svg PUBLIC "-//W3C//DTD SVG 20010904//EN"
 "http://www.w3.org/TR/2001/REC-SVG-20010904/DTD/svg10.dtd">
<svg version="1.0" xmlns="http://www.w3.org/2000/svg" width="2048.000000pt" height="2048.000000pt" viewBox="463 495 1122 1122" preserveAspectRatio="xMidYMid meet">
  <g transform="translate(0.000000,2048.000000) scale(0.100000,-0.100000)" fill="#2563eb" stroke="none">
    <path d="M12785 13854 c-16 -2 -73 -9 -125 -14 -147 -17 -273 -38 -410 -71
-156 -37 -336 -87 -375 -105 -209 -92 -301 -137 -360 -174 -38 -24 -105 -65
-149 -91 -121 -74 -241 -176 -378 -318 -105 -109 -142 -157 -232 -299 -59 -93
-115 -177 -125 -186 -10 -9 -44 -21 -75 -26 -76 -12 -169 -50 -291 -118 -114
-63 -183 -124 -264 -232 -135 -178 -166 -248 -202 -447 -43 -239 -14 -420 102
-641 27 -52 49 -99 49 -106 0 -14 -55 -93 -210 -300 -58 -78 -112 -151 -120
-163 -63 -90 -315 -441 -403 -560 -60 -80 -132 -180 -160 -222 -29 -42 -86
-121 -128 -176 -41 -55 -108 -147 -148 -205 -41 -58 -89 -124 -108 -147 -19
-24 -72 -96 -118 -160 -45 -65 -95 -134 -109 -153 -52 -68 -124 -167 -251
-345 -71 -99 -156 -216 -189 -260 -33 -44 -76 -102 -95 -128 -40 -54 -37 -53
-151 -21 -54 15 -102 18 -275 19 l-210 0 -110 -38 c-162 -57 -249 -103 -350
-186 -213 -177 -296 -295 -389 -551 -48 -133 -65 -331 -42 -490 37 -247 149
-482 303 -631 213 -207 461 -315 738 -323 310 -9 514 46 730 195 231 159 366
360 441 654 23 95 27 130 28 255 0 126 -3 158 -27 245 -39 148 -88 265 -146
350 -12 17 -21 36 -21 43 0 7 36 60 81 118 88 116 289 394 353 489 53 78 130
184 184 251 23 30 42 56 42 59 0 3 51 75 113 161 61 85 130 181 152 213 61 88
246 339 281 380 16 20 41 54 53 76 13 22 34 53 48 70 14 16 57 76 97 131 40
56 90 124 112 150 23 27 52 67 65 89 30 51 101 151 257 363 68 92 148 204 179
250 30 46 61 86 68 89 8 3 50 -2 93 -11 232 -47 527 12 723 144 91 62 222 185
270 253 53 76 133 237 154 312 12 42 19 124 25 275 9 246 16 285 72 395 95
187 202 298 403 417 231 137 607 194 1040 157 227 -20 477 -84 762 -195 125
-48 356 -162 418 -204 225 -156 330 -233 385 -285 36 -34 87 -78 114 -99 l49
-36 25 22 c13 13 45 55 70 93 26 39 114 160 197 270 257 343 485 659 485 673
0 19 -79 109 -137 154 -32 25 -69 56 -83 68 -32 28 -161 128 -203 157 -17 13
-63 45 -102 72 -38 27 -124 79 -190 116 -66 37 -132 75 -146 85 -79 55 -408
193 -594 250 -165 50 -459 114 -595 130 -52 6 -111 14 -130 17 -40 7 -790 13
-835 7z m-1830 -1879 c38 -21 88 -55 111 -77 127 -117 156 -331 67 -500 -76
-145 -237 -230 -393 -208 -149 21 -260 101 -320 232 -29 63 -34 85 -38 173
l-4 100 41 82 c46 91 104 151 192 197 75 40 102 45 195 42 72 -2 87 -6 149
-41z"/>
    <path d="M4641 13801 c-12 -8 -14 -118 -13 -728 l0 -718 1031 -3 1031 -2 1
-1688 c0 -928 0 -1694 0 -1702 0 -8 0 -80 -1 -160 -1 -80 1 -153 5 -163 5 -11
5 -63 1 -116 -3 -54 -3 -101 0 -104 4 -3 72 28 151 69 171 88 401 167 538 184
50 7 144 12 210 11 l120 -1 31 43 c17 23 68 96 113 162 45 66 104 149 131 185
27 36 74 102 106 148 l57 83 -2 1524 -2 1525 720 0 c826 0 726 -13 797 107
106 182 419 427 584 457 27 5 41 16 62 49 45 72 148 217 230 326 44 57 108
147 143 200 66 98 78 115 174 234 29 38 50 71 46 75 -11 11 -6248 14 -6264 3z"/>
    <path d="M12054 10923 c-147 -273 -343 -463 -623 -605 -143 -73 -272 -114
-426 -135 -66 -9 -122 -18 -124 -20 -11 -8 132 -140 235 -218 269 -204 656
-397 1029 -513 72 -23 234 -66 360 -98 127 -31 232 -60 233 -65 2 -5 18 -9 35
-9 61 0 424 -92 627 -160 36 -12 113 -36 171 -55 150 -47 381 -155 486 -228
91 -63 147 -117 177 -172 9 -16 32 -52 51 -78 51 -71 105 -246 105 -339 -1
-133 -27 -275 -65 -357 -58 -121 -165 -254 -254 -314 -277 -187 -581 -249
-1116 -226 -212 9 -334 27 -493 73 -65 19 -133 37 -152 40 -19 4 -55 16 -80
26 -25 11 -92 38 -150 60 -58 23 -129 55 -159 71 -30 16 -59 29 -64 29 -32 0
-465 273 -557 351 -30 25 -100 82 -155 126 -55 44 -134 115 -175 157 -41 42
-80 76 -86 76 -6 0 -18 -8 -25 -19 -8 -10 -68 -86 -134 -169 -157 -198 -176
-223 -332 -431 -72 -97 -140 -186 -152 -199 -11 -12 -38 -48 -59 -80 -21 -31
-50 -74 -64 -95 -16 -23 -24 -45 -21 -57 3 -12 62 -74 132 -139 240 -226 522
-448 711 -559 138 -81 533 -277 596 -296 33 -10 88 -30 124 -46 104 -45 208
-76 485 -144 286 -70 437 -92 720 -105 204 -9 466 -5 644 9 129 10 398 52 456
70 17 5 62 16 100 25 418 91 869 328 1150 602 86 84 249 283 307 374 99 155
219 437 267 624 66 261 81 715 31 955 -48 228 -65 291 -107 400 -47 121 -68
163 -140 280 -131 211 -314 394 -595 596 -113 82 -346 204 -558 294 -200 85
-255 104 -505 180 -93 28 -292 82 -441 120 -150 38 -294 75 -320 84 -27 9
-132 39 -234 67 -169 46 -277 80 -400 124 -65 23 -282 129 -350 170 -32 19
-60 35 -63 35 -3 0 -27 -39 -53 -87z"/>
  </g>
</svg>
